# File created by Blade
# Date/Time:  Wed Jan 21 17:41:14 2015
# Frame Rate: 120.000 fps
#------------------------------------------------------
:FULLY-SPECIFIED
:DEGREES
1510
root 18.411733 29.342426 -20.113655 -488.458228 84.388257 -553.776139
Spine 61.416679 -0.916159 3.682366
Head -42.316746 1.652464 1.714331
LeftShoulder 23.749458 -52.299388 15.719856
LeftArm 48.870237 10.289339 -16.150482
LeftForeArm -5.654412 -0.000000 1.493837
LeftHand 2.584535 -0.000000 39.941499
LeftHandThumb1 -26.253704 0.000000 33.147579
RightShoulder 13.982146 17.603704 -33.680106
RightArm 61.138352 25.631153 31.715317
RightForeArm -13.648449 -0.000000 13.222714
RightHand 1.179129 -0.000000 -56.053187
RightHandThumb1 -24.326973 -0.000000 -32.862282
LeftUpLeg -27.833178 3.282001 -1.227612
LeftLeg 0.962065 -0.000000 -0.000000
LeftFoot -42.556420 18.634573 -18.235905
LeftToeBase 16.940521 -0.000000 -0.000000
RightUpLeg -111.919649 6.280154 6.730022
RightLeg 66.076866 -0.000000 -0.000000
RightFoot -37.451430 -27.826014 14.240114
RightToeBase 20.550556 -0.000000 -0.000000
1511
root 18.303305 29.361904 -20.092658 -488.031681 84.310055 -552.953162
Spine 60.969269 -0.713640 4.167348
Head -42.319646 1.346850 1.863562
LeftShoulder 23.534565 -52.069819 15.456992
LeftArm 49.783830 10.587578 -16.372971
LeftForeArm -5.401141 -0.000000 1.701738
LeftHand 2.257886 -0.000000 37.360987
LeftHandThumb1 -26.253704 0.000000 33.147579
RightShoulder 14.114237 17.560109 -33.621568
RightArm 60.141004 25.188598 31.344239
RightForeArm -13.668308 -0.000000 13.443418
RightHand 1.392600 -0.000000 -53.964489
RightHandThumb1 -24.326973 -0.000000 -32.862282
LeftUpLeg -27.584284 3.574020 -1.283984
LeftLeg 0.986357 -0.000000 -0.000000
LeftFoot -42.706278 18.769549 -18.224261
LeftToeBase 17.046349 -0.000000 -0.000000
RightUpLeg -111.616251 6.205442 6.487115
RightLeg 65.919610 -0.000000 -0.000000
RightFoot -37.177974 -27.400892 14.404439
RightToeBase 20.367242 -0.000000 -0.000000
1512
root 18.195112 29.379460 -20.076651 -487.935158 84.251180 -552.384392
Spine 60.596488 -0.551939 4.572830
Head -42.436477 1.042013 2.004170
LeftShoulder 23.065605 -51.720222 15.418580
LeftArm 50.850175 10.810257 -16.614871
LeftForeArm -4.731891 -0.000000 1.617774
LeftHand 2.056975 -0.000000 34.846863
LeftHandThumb1 -26.253704 0.000000 33.147579
RightShoulder 14.161150 17.403624 -33.603684
RightArm 59.336028 24.792187 30.970035
RightForeArm -13.470878 0.000000 13.613253
RightHand 1.626346 -0.000000 -51.926877
RightHandThumb1 -24.326973 -0.000000 -32.862282
LeftUpLeg -27.255106 3.764485 -1.335997
LeftLeg 1.013477 -0.000000 -0.000000
LeftFoot -42.912848 19.083693 -18.287955
LeftToeBase 17.336721 -0.000000 -0.000000
RightUpLeg -111.230753 6.092528 6.279554
RightLeg 65.760105 -0.000000 -0.000000
RightFoot -36.957426 -26.943057 14.651572
RightToeBase 20.578598 -0.000000 -0.000000
1513
root 18.086724 29.392346 -20.060471 -488.118038 84.181292 -552.015518
Spine 60.177370 -0.423412 4.929356
Head -42.288771 0.804411 2.088316
LeftShoulder 22.976469 -51.537029 15.140099
LeftArm 51.652841 11.448646 -16.793989
LeftForeArm -3.963166 -0.000000 1.360958
LeftHand 1.802372 -0.000000 32.505469
LeftHandThumb1 -26.253704 0.000000 33.147579
RightShoulder 14.393854 17.463196 -33.451262
RightArm 58.292846 24.214301 30.522007
RightForeArm -13.364390 -0.000000 13.911292
RightHand 1.669170 -0.000000 -49.463696
RightHandThumb1 -24.326973 -0.000000 -32.862282
LeftUpLeg -26.898528 4.072614 -1.442429
LeftLeg 1.160674 -0.000000 -0.000000
LeftFoot -43.087969 19.186553 -18.278898
LeftToeBase 17.435850 -0.000000 -0.000000
RightUpLeg -110.778050 5.965132 6.066395
RightLeg 65.624346 -0.000000 -0.000000
RightFoot -36.688110 -26.328614 14.792466
RightToeBase 20.545535 -0.000000 -0.000000
1514
root 17.975422 29.402675 -20.052010 -488.970369 84.191692 -552.272719
Spine 59.802309 -0.281168 5.138969
Head -42.275767 0.582719 2.255273
LeftShoulder 22.649432 -51.121984 15.175120
LeftArm 52.567577 11.844359 -17.036241
LeftForeArm -3.512621 -0.000000 0.948925
LeftHand 1.438901 -0.000000 30.459377
LeftHandThumb1 -26.253704 0.000000 33.147579
RightShoulder 14.485322 17.258807 -33.290167
RightArm 57.601131 23.800433 30.087800
RightForeArm -13.086625 0.000000 14.134915
RightHand 1.706005 0.000000 -46.982459
RightHandThumb1 -24.326973 -0.000000 -32.862282
LeftUpLeg -26.464447 4.225292 -1.601676
LeftLeg 1.238987 -0.000000 -0.000000
LeftFoot -43.362175 19.447120 -18.460075
LeftToeBase 17.483430 -0.000000 -0.000000
RightUpLeg -110.291608 5.802542 5.785108
RightLeg 65.493973 -0.000000 -0.000000
RightFoot -36.340069 -25.781352 14.675273
RightToeBase 21.030773 -0.000000 -0.000000
1515
root 17.865131 29.410967 -20.049150 -490.217971 84.167009 -552.913573
Spine 59.366493 -0.375573 5.163233
Head -42.218134 0.568743 2.236371
LeftShoulder 22.093211 -50.513275 15.325268
LeftArm 53.324012 12.155422 -17.275728
LeftForeArm -3.476017 -0.000000 0.668756
LeftHand 0.946600 -0.000000 28.415266
LeftHandThumb1 -26.253704 0.000000 33.147579
RightShoulder 14.749122 17.211997 -33.098716
RightArm 57.098683 23.357814 29.787516
RightForeArm -12.775648 -0.000000 14.222181
RightHand 1.860999 -0.000000 -44.307709
RightHandThumb1 -24.326973 -0.000000 -32.862282
LeftUpLeg -26.041684 4.391809 -1.789330
LeftLeg 1.362520 -0.000000 -0.000000
LeftFoot -43.659064 19.637492 -18.613993
LeftToeBase 17.682579 -0.000000 -0.000000
RightUpLeg -109.811921 5.582664 5.601885
RightLeg 65.393120 -0.000000 -0.000000
RightFoot -35.966322 -25.324119 14.488912
RightToeBase 21.169083 -0.000000 -0.000000
1516
root 17.752134 29.421920 -20.046163 -491.212101 84.163526 -553.263970
Spine 58.897331 -0.348480 5.287938
Head -42.041195 0.388919 2.296443
LeftShoulder 22.174832 -50.529524 14.966838
LeftArm 53.633319 13.049241 -17.776270
LeftForeArm -3.504123 0.000000 0.455511
LeftHand 0.397515 -0.000000 26.646181
LeftHandThumb1 -26.253704 0.000000 33.147579
RightShoulder 14.993404 17.285135 -32.889462
RightArm 56.413209 22.820788 29.574815
RightForeArm -12.347320 -0.000000 14.400555
RightHand 2.064991 -0.000000 -41.758464
RightHandThumb1 -24.326973 -0.000000 -32.862282
LeftUpLeg -25.578529 4.594103 -1.970534
LeftLeg 1.446650 -0.000000 -0.000000
LeftFoot -43.983197 19.850565 -18.831149
LeftToeBase 17.887368 -0.000000 -0.000000
RightUpLeg -109.289305 5.411367 5.519720
RightLeg 65.280689 -0.000000 -0.000000
RightFoot -35.578180 -24.682711 14.446069
RightToeBase 21.461864 -0.000000 -0.000000
1517
root 17.646171 29.435609 -20.045295 -491.983071 84.140026 -553.289695
Spine 58.548344 -0.429055 5.356305
Head -41.950527 0.309772 2.231909
LeftShoulder 21.926518 -49.949045 14.862569
LeftArm 54.096801 13.327250 -18.075925
LeftForeArm -3.936339 -0.000000 0.260070
LeftHand -0.151598 -0.000000 24.682332
LeftHandThumb1 -26.253704 0.000000 33.147579
RightShoulder 15.274064 17.248568 -32.743593
RightArm 55.967552 22.497876 29.389895
RightForeArm -11.961325 -0.000000 14.430127
RightHand 2.116361 -0.000000 -38.934294
RightHandThumb1 -24.326973 -0.000000 -32.862282
LeftUpLeg -25.008701 4.882240 -2.134220
LeftLeg 1.484825 -0.000000 -0.000000
LeftFoot -44.302562 19.939860 -19.087201
LeftToeBase 18.310203 -0.000000 -0.000000
RightUpLeg -108.629544 5.243456 5.550746
RightLeg 65.124431 -0.000000 -0.000000
RightFoot -35.186502 -24.381536 14.148866
RightToeBase 21.786369 -0.000000 -0.000000
1518
root 17.535729 29.450318 -20.049277 -492.701188 84.163896 -553.294182
Spine 58.097731 -0.466171 5.404059
Head -41.817446 0.204339 2.138993
LeftShoulder 21.842210 -49.450078 14.610507
LeftArm 54.337255 13.558755 -18.658181
LeftForeArm -4.387752 -0.000000 0.157966
LeftHand -0.812251 -0.000000 22.563375
LeftHandThumb1 -26.253704 0.000000 33.147579
RightShoulder 15.543988 17.201008 -32.538082
RightArm 55.576832 22.216155 29.257020
RightForeArm -11.333284 -0.000000 14.492511
RightHand 2.438952 0.000000 -35.084622
RightHandThumb1 -24.326973 -0.000000 -32.862282
LeftUpLeg -24.456140 5.193007 -2.326539
LeftLeg 1.462034 -0.000000 -0.000000
LeftFoot -44.607879 20.008015 -19.258359
LeftToeBase 18.620353 -0.000000 -0.000000
RightUpLeg -108.005052 5.108710 5.582679
RightLeg 64.938623 -0.000000 -0.000000
RightFoot -34.722892 -24.132986 13.887129
RightToeBase 21.830981 -0.000000 -0.000000
1519
root 17.425211 29.465120 -20.061293 -493.329183 84.219644 -553.222939
Spine 57.639281 -0.518269 5.388832
Head -41.786684 0.033108 2.099161
LeftShoulder 21.575048 -48.931771 14.418039
LeftArm 54.580603 13.633490 -19.416732
LeftForeArm -5.052648 -0.000000 0.074336
LeftHand -1.623360 -0.000000 20.479299
LeftHandThumb1 -26.253704 0.000000 33.147579
RightShoulder 15.796337 17.348070 -32.337783
RightArm 55.249256 21.877891 29.316306
RightForeArm -10.734951 -0.000000 14.492712
RightHand 2.688299 -0.000000 -31.322582
RightHandThumb1 -24.326973 -0.000000 -32.862282
LeftUpLeg -23.887692 5.627057 -2.570888
LeftLeg 1.357524 -0.000000 -0.000000
LeftFoot -44.845526 19.951532 -19.323255
LeftToeBase 18.886740 -0.000000 -0.000000
RightUpLeg -107.409312 5.011578 5.658277
RightLeg 64.732645 -0.000000 -0.000000
RightFoot -34.239382 -24.063899 13.696672
RightToeBase 21.810096 -0.000000 -0.000000
1520
root 17.314906 29.486122 -20.070602 -493.634931 84.272276 -552.800046
Spine 57.178561 -0.556074 5.418337
Head -41.678693 -0.142872 1.996631
LeftShoulder 21.518652 -48.535363 14.064170
LeftArm 54.536473 13.703283 -20.335603
LeftForeArm -5.942506 -0.000000 0.042693
LeftHand -1.960654 -0.000000 17.942278
LeftHandThumb1 -26.253704 0.000000 33.147579
RightShoulder 16.075193 17.410364 -32.156920
RightArm 54.989256 21.689461 29.432530
RightForeArm -9.946252 0.000000 14.423999
RightHand 2.879076 -0.000000 -27.402550
RightHandThumb1 -24.326973 -0.000000 -32.862282
LeftUpLeg -23.302766 5.946172 -2.720394
LeftLeg 1.254711 -0.000000 -0.000000
LeftFoot -45.129563 20.027917 -19.498674
LeftToeBase 19.061622 -0.000000 -0.000000
RightUpLeg -106.754989 4.968918 5.814062
RightLeg 64.453316 -0.000000 -0.000000
RightFoot -33.743852 -24.250341 13.492345
RightToeBase 21.583422 -0.000000 -0.000000
1521
root 17.206371 29.505519 -20.085351 -494.370461 84.402252 -552.828637
Spine 56.671491 -0.485772 5.355149
Head -41.577390 -0.374283 2.104787
LeftShoulder 21.512388 -48.226235 13.809257
LeftArm 54.314120 13.744418 -21.601280
LeftForeArm -6.307940 -0.000000 0.078264
LeftHand -2.656390 0.000000 15.824562
LeftHandThumb1 -26.253704 0.000000 33.147579
RightShoulder 16.288421 17.489317 -31.846937
RightArm 54.733447 21.522213 29.610199
RightForeArm -8.853430 -0.000000 14.363244
RightHand 3.569826 -0.000000 -22.623073
RightHandThumb1 -24.326973 -0.000000 -32.862282
LeftUpLeg -22.695470 6.248716 -2.928336
LeftLeg 1.093583 -0.000000 -0.000000
LeftFoot -45.361242 20.067155 -19.696850
LeftToeBase 19.171772 -0.000000 -0.000000
RightUpLeg -106.160763 4.936768 5.913858
RightLeg 64.221812 -0.000000 -0.000000
RightFoot -33.234096 -24.287202 13.449065
RightToeBase 21.550685 -0.000000 -0.000000
